<?xml version="1.0" encoding="utf-8"?>
<!-- Generator: Adobe Illustrator 22.0.1, SVG Export Plug-In . SVG Version: 6.00 Build 0)  -->
<svg version="1.1" id="Layer_1" xmlns="http://www.w3.org/2000/svg" xmlns:xlink="http://www.w3.org/1999/xlink" x="0px" y="0px"
	 viewBox="0 0 100 99.2" style="enable-background:new 0 0 100 99.2;" xml:space="preserve">
<style type="text/css">
	.st0{fill:#008C52;}
	.st1{fill:url(#SVGID_1_);}
	.st2{fill:#7AC943;}
	.st3{fill:url(#SVGID_2_);}
	.st4{opacity:0.72;fill:#3DFF7E;enable-background:new    ;}
	.st5{opacity:0.53;fill:#006837;enable-background:new    ;}
	.st6{opacity:0.83;fill:url(#SVGID_3_);enable-background:new    ;}
	.st7{opacity:0.32;fill:url(#SVGID_4_);enable-background:new    ;}
	.st8{fill:#ACFAB2;}
	.st9{fill:#1A1A1A;}
</style>
<g id="Layer_2_1_">
</g>
<g id="Layer_1_1_">
	<g>
		<g>
			<g>
				<path class="st0" d="M69.1,37.6L50.9,19.4c-0.3-0.4-0.8-0.6-1.3-0.6v41.7c0.5,0,0.9-0.2,1.3-0.6l18.2-21.4
					C69.3,38.3,69.3,37.9,69.1,37.6z"/>
				
					<linearGradient id="SVGID_1_" gradientUnits="userSpaceOnUse" x1="49.8366" y1="94.6314" x2="64.9447" y2="79.5989" gradientTransform="matrix(1 0 0 -1 4.022490e-03 134.1424)">
					<stop  offset="0.19" style="stop-color:#009C64;stop-opacity:0"/>
					<stop  offset="0.457" style="stop-color:#047A47;stop-opacity:0.3296"/>
					<stop  offset="1" style="stop-color:#0D2C03"/>
				</linearGradient>
				<path class="st1" d="M69.1,37.6L50.9,19.4c-0.3-0.4-0.8-0.6-1.3-0.6v41.7c0.5,0,0.9-0.2,1.3-0.6l18.2-21.4
					C69.3,38.3,69.3,37.9,69.1,37.6z"/>
			</g>
			<g>
				<path class="st2" d="M30.2,37.6l18.2-18.2c0.3-0.4,0.8-0.6,1.3-0.6v41.7l0,0c-0.5,0-0.9-0.2-1.3-0.6L30.2,38.6
					C30,38.3,30,37.9,30.2,37.6z"/>
				
					<linearGradient id="SVGID_2_" gradientUnits="userSpaceOnUse" x1="36.6518" y1="84.9013" x2="50.6262" y2="95.4103" gradientTransform="matrix(1 0 0 -1 4.022490e-03 134.1424)">
					<stop  offset="0" style="stop-color:#228A6F"/>
					<stop  offset="2.599492e-02" style="stop-color:#238871;stop-opacity:0.9789"/>
					<stop  offset="0.4316" style="stop-color:#2C7093;stop-opacity:0.6503"/>
					<stop  offset="0.7666" style="stop-color:#3261A8;stop-opacity:0.379"/>
					<stop  offset="0.9875" style="stop-color:#345CB0;stop-opacity:0.2"/>
				</linearGradient>
				<path class="st3" d="M30.2,37.6l18.2-18.2c0.3-0.4,0.8-0.6,1.3-0.6v41.7l0,0c-0.5,0-0.9-0.2-1.3-0.6L30.2,38.6
					C30,38.3,30,37.9,30.2,37.6z"/>
				<path class="st4" d="M30.2,37.6l18.2-18.2c0.3-0.4,0.8-0.6,1.3-0.6v41.7l0,0c-0.5,0-0.9-0.2-1.3-0.6L30.2,38.6
					C30,38.3,30,37.9,30.2,37.6z"/>
			</g>
		</g>
		<g>
			<path class="st5" d="M63.7,37.1l-13-13.6c-0.3-0.3-0.7-0.5-1-0.5v29c0.4,0,0.7-0.1,1-0.5l13-13.6C63.9,37.7,63.9,37.3,63.7,37.1z
				"/>
			
				<linearGradient id="SVGID_3_" gradientUnits="userSpaceOnUse" x1="49.9353" y1="96.5921" x2="62.6981" y2="84.9443" gradientTransform="matrix(1 0 0 -1 4.022490e-03 134.1424)">
				<stop  offset="0" style="stop-color:#82FFEB;stop-opacity:0.7"/>
				<stop  offset="0.3113" style="stop-color:#59D6B8;stop-opacity:0.7934"/>
				<stop  offset="1" style="stop-color:#007D4B"/>
			</linearGradient>
			<path class="st6" d="M63.7,37.1l-13-13.6c-0.3-0.3-0.7-0.5-1-0.5v29c0.4,0,0.7-0.1,1-0.5l13-13.6C63.9,37.7,63.9,37.3,63.7,37.1z
				"/>
			
				<linearGradient id="SVGID_4_" gradientUnits="userSpaceOnUse" x1="49.9353" y1="96.5921" x2="62.6981" y2="84.9443" gradientTransform="matrix(1 0 0 -1 4.022490e-03 134.1424)">
				<stop  offset="0" style="stop-color:#82FFEB;stop-opacity:0.2"/>
				<stop  offset="1.267223e-03" style="stop-color:#82FEEA;stop-opacity:0.2008"/>
				<stop  offset="0.1449" style="stop-color:#72BBAD;stop-opacity:0.2859"/>
				<stop  offset="0.2811" style="stop-color:#64827A;stop-opacity:0.3665"/>
				<stop  offset="0.4059" style="stop-color:#5A5652;stop-opacity:0.4405"/>
				<stop  offset="0.517" style="stop-color:#523635;stop-opacity:0.5064"/>
				<stop  offset="0.6105" style="stop-color:#4E2323;stop-opacity:0.5618"/>
				<stop  offset="0.675" style="stop-color:#4C1C1D;stop-opacity:0.6"/>
			</linearGradient>
			<path class="st7" d="M63.7,37.1l-13-13.6c-0.3-0.3-0.7-0.5-1-0.5v29c0.4,0,0.7-0.1,1-0.5l13-13.6C63.9,37.7,63.9,37.3,63.7,37.1z
				"/>
		</g>
		<g>
			<path class="st8" d="M35.6,37.1l13-13.6c0.3-0.3,0.7-0.5,1-0.5v29c-0.4,0-0.7-0.1-1-0.5L35.6,38C35.4,37.7,35.4,37.3,35.6,37.1z"
				/>
		</g>
	</g>
	<g>
		<path class="st9" d="M11.8,77.1c0-3.3,2.4-6.1,6.4-6.1c1.5,0,2.5,0.4,3.5,1c0.3,0.2,0.4,0.5,0.2,0.8L21.8,73
			c-0.2,0.3-0.5,0.4-0.8,0.2c-0.7-0.4-1.7-0.7-2.7-0.7c-2.9,0-4.6,2.1-4.6,4.5c0,2.4,1.7,4.5,4.6,4.5c0.9,0,1.9-0.3,2.7-0.7
			c0.4-0.2,0.7-0.1,0.8,0.2l0.1,0.3c0.2,0.3,0.1,0.6-0.1,0.8c-0.9,0.6-2,1-3.6,1C14.2,83.2,11.8,80.4,11.8,77.1z"/>
		<path class="st9" d="M22.9,82.4V71.3c0-0.4,0.2-0.6,0.6-0.6H24c0.4,0,0.6,0.2,0.6,0.6v11.1c0,0.4-0.2,0.6-0.6,0.6h-0.5
			C23.1,83,22.9,82.8,22.9,82.4z"/>
		<path class="st9" d="M25.7,78.8c0-2.5,1.9-4.5,4.6-4.5c2.1,0,4.1,1.3,4.3,4c0,0.4-0.2,0.6-0.6,0.6h-6.6c0,1.6,1.3,2.7,3.1,2.7
			c0.8,0,1.6-0.2,2.3-0.7c0.3-0.2,0.6-0.2,0.9,0.1l0.1,0.1c0.3,0.3,0.3,0.6-0.1,1c-1,0.8-2.1,1-3.2,1C27.5,83.2,25.7,81.2,25.7,78.8
			z M32.9,77.7c-0.5-1.5-1.6-1.9-2.5-1.9c-1,0-2.2,0.4-2.7,1.9H32.9z"/>
		<path class="st9" d="M35,78.8c0-2.4,1.7-4.4,4.2-4.4c1.2,0,2.2,0.4,3,1.5v-0.7c0-0.4,0.2-0.6,0.6-0.6h0.5c0.4,0,0.6,0.2,0.6,0.6
			v7.3c0,0.4-0.2,0.6-0.6,0.6h-0.5c-0.4,0-0.6-0.2-0.6-0.6v-0.7c-0.8,1.2-1.9,1.5-3,1.5C36.7,83.2,35,81.2,35,78.8z M42.3,78.8
			c0-1.7-1.2-2.9-2.8-2.9c-1.7,0-2.7,1.3-2.7,2.9c0,1.6,1,2.9,2.7,2.9C41.1,81.7,42.3,80.5,42.3,78.8z"/>
		<path class="st9" d="M45.6,82.4v-7.3c0-0.4,0.2-0.6,0.6-0.6h0.5c0.4,0,0.6,0.2,0.6,0.6v1c0.4-1.2,1.5-1.9,2.8-1.9
			c1.9,0,3.2,1.2,3.2,3.9v4.2c0,0.4-0.2,0.6-0.6,0.6h-0.5c-0.4,0-0.6-0.2-0.6-0.6v-4.2c0-1.7-0.8-2.4-1.7-2.4
			c-0.9,0-2.7,0.6-2.7,3.2v3.4c0,0.4-0.2,0.6-0.6,0.6h-0.5C45.9,83,45.6,82.8,45.6,82.4z"/>
		<path class="st9" d="M63,71.8V72c0,0.4-0.2,0.6-0.6,0.6h-5.2v3.8h4.4c0.4,0,0.6,0.2,0.6,0.6v0.2c0,0.4-0.2,0.6-0.6,0.6h-4.4v4.5
			c0,0.4-0.2,0.6-0.6,0.6h-0.6c-0.4,0-0.6-0.2-0.6-0.6V71.8c0-0.4,0.2-0.6,0.6-0.6h6.4C62.7,71.1,63,71.3,63,71.8z"/>
		<path class="st9" d="M63.8,82.4V71.3c0-0.4,0.2-0.6,0.6-0.6h0.5c0.4,0,0.6,0.2,0.6,0.6v11.1c0,0.4-0.2,0.6-0.6,0.6h-0.5
			C64,83,63.8,82.8,63.8,82.4z"/>
		<path class="st9" d="M66.5,78.8c0-2.4,2-4.4,4.5-4.4c2.5,0,4.5,2,4.5,4.4c0,2.5-2,4.4-4.5,4.4S66.5,81.3,66.5,78.8z M73.8,78.8
			c0-1.6-1.2-2.9-2.8-2.9c-1.5,0-2.8,1.3-2.8,2.9c0,1.6,1.3,2.9,2.8,2.9C72.6,81.7,73.8,80.4,73.8,78.8z"/>
		<path class="st9" d="M78.2,82.6l-2.7-7.3c-0.1-0.5,0-0.7,0.5-0.7h0.6c0.3,0,0.6,0.1,0.7,0.5l2,5.7l1.7-5.4
			c0.1-0.3,0.3-0.5,0.7-0.5H82c0.3,0,0.6,0.2,0.7,0.5l1.7,5.4l2-5.7c0.1-0.3,0.3-0.5,0.7-0.5h0.6c0.5,0,0.6,0.2,0.5,0.7l-2.6,7.3
			c-0.1,0.3-0.3,0.5-0.7,0.5h-0.6c-0.3,0-0.6-0.2-0.7-0.5l-1.7-5.3l-1.7,5.3C80,82.9,79.8,83,79.4,83h-0.6
			C78.5,83,78.3,82.9,78.2,82.6z"/>
	</g>
</g>
</svg>
